<svg xmlns="http://www.w3.org/2000/svg" width="1200" height="800" viewBox="0 0 1200 800" fill="none">
  <g stroke="#294052" stroke-opacity="0.075" stroke-width="1.25">
    <path d="M-60 640C120 520 210 712 390 602S650 436 840 520s255 38 420-72"/>
    <path d="M-80 584C94 474 210 650 374 548s286-176 466-98 260 24 422-82"/>
    <path d="M-66 522C118 418 214 586 392 482s270-164 452-92 258 18 424-90"/>
    <path d="M-42 462C128 354 232 526 398 416s276-154 452-86 252 14 416-96"/>
    <path d="M-20 398C134 304 244 454 410 354s272-148 444-78 246 14 402-92"/>
    <path d="M16 340C150 250 250 398 418 296s270-136 432-68 226 14 374-76"/>
  </g>
</svg>
