<svg xmlns="http://www.w3.org/2000/svg">
  <symbol id="icon-assess" viewBox="0 0 48 48"><circle cx="24" cy="24" r="17" fill="none" stroke="currentColor" stroke-width="2"/><path d="M24 13v11l8 5M13 24h4M31 24h4M24 13v4M24 31v4" fill="none" stroke="currentColor" stroke-width="2" stroke-linecap="round" stroke-linejoin="round"/></symbol>
  <symbol id="icon-capture" viewBox="0 0 48 48"><circle cx="24" cy="24" r="16" fill="none" stroke="currentColor" stroke-width="2"/><circle cx="24" cy="24" r="9" fill="none" stroke="currentColor" stroke-width="2"/><circle cx="24" cy="24" r="2.5" fill="currentColor"/><path d="M35 13l-8 8M31 13h4v4" fill="none" stroke="currentColor" stroke-width="2" stroke-linecap="round" stroke-linejoin="round"/></symbol>
  <symbol id="icon-market" viewBox="0 0 48 48"><path d="M10 36c5-13 12-19 23-24M27 11h7v7" fill="none" stroke="currentColor" stroke-width="2" stroke-linecap="round" stroke-linejoin="round"/><circle cx="12" cy="35" r="4" fill="none" stroke="currentColor" stroke-width="2"/><circle cx="34" cy="12" r="4" fill="none" stroke="currentColor" stroke-width="2"/></symbol>
  <symbol id="icon-leadership" viewBox="0 0 48 48"><circle cx="24" cy="17" r="7" fill="none" stroke="currentColor" stroke-width="2"/><path d="M11 38c1.5-8 6-12 13-12s11.5 4 13 12M31 30l4-4 4 4M35 26v11" fill="none" stroke="currentColor" stroke-width="2" stroke-linecap="round" stroke-linejoin="round"/></symbol>
  <symbol id="icon-transition" viewBox="0 0 48 48"><path d="M8 34h32M12 34V21M36 34V21M12 25c4-8 8-12 12-12s8 4 12 12M19 34v-6M29 34v-6" fill="none" stroke="currentColor" stroke-width="2" stroke-linecap="round"/></symbol>
  <symbol id="icon-recovery" viewBox="0 0 48 48"><path d="M38 22a14 14 0 10-4 11M38 13v9h-9M17 28l5-5 4 4 7-8" fill="none" stroke="currentColor" stroke-width="2" stroke-linecap="round" stroke-linejoin="round"/></symbol>
  <symbol id="icon-materiality" viewBox="0 0 48 48"><path d="M24 7l17 30H7L24 7zM24 17v10M24 33h.01" fill="none" stroke="currentColor" stroke-width="2" stroke-linecap="round" stroke-linejoin="round"/></symbol>
  <symbol id="icon-access" viewBox="0 0 48 48"><circle cx="18" cy="24" r="8" fill="none" stroke="currentColor" stroke-width="2"/><path d="M26 24h14M34 24v5M38 24v4" fill="none" stroke="currentColor" stroke-width="2" stroke-linecap="round"/></symbol>
  <symbol id="icon-action" viewBox="0 0 48 48"><path d="M10 36l7-17 8 8 13-15M30 12h8v8" fill="none" stroke="currentColor" stroke-width="2" stroke-linecap="round" stroke-linejoin="round"/></symbol>
  <symbol id="icon-direct" viewBox="0 0 48 48"><path d="M8 24h29M29 16l8 8-8 8" fill="none" stroke="currentColor" stroke-width="2" stroke-linecap="round" stroke-linejoin="round"/></symbol>
  <symbol id="icon-independent" viewBox="0 0 48 48"><path d="M24 7l13 5v10c0 9-5 15-13 19-8-4-13-10-13-19V12l13-5zM18 24l4 4 8-9" fill="none" stroke="currentColor" stroke-width="2" stroke-linecap="round" stroke-linejoin="round"/></symbol>
  <symbol id="icon-accountable" viewBox="0 0 48 48"><path d="M14 8h20v32H14zM19 17h10M19 23h10M19 29h6M20 8v4M28 8v4" fill="none" stroke="currentColor" stroke-width="2" stroke-linecap="round"/></symbol>
  <symbol id="icon-selective" viewBox="0 0 48 48"><path d="M8 12h32L27 27v10l-6 3V27L8 12z" fill="none" stroke="currentColor" stroke-width="2" stroke-linejoin="round"/></symbol>
  <symbol id="icon-mail" viewBox="0 0 48 48"><rect x="7" y="12" width="34" height="24" rx="2" fill="none" stroke="currentColor" stroke-width="2"/><path d="M8 14l16 13 16-13" fill="none" stroke="currentColor" stroke-width="2" stroke-linejoin="round"/></symbol>
  <symbol id="icon-copy" viewBox="0 0 48 48"><rect x="16" y="14" width="22" height="24" rx="2" fill="none" stroke="currentColor" stroke-width="2"/><path d="M12 33h-2a2 2 0 01-2-2V10a2 2 0 012-2h20a2 2 0 012 2v1" fill="none" stroke="currentColor" stroke-width="2" stroke-linecap="round"/></symbol>
  <symbol id="icon-arrow" viewBox="0 0 24 24"><path d="M5 12h13M13 7l5 5-5 5" fill="none" stroke="currentColor" stroke-width="1.8" stroke-linecap="round" stroke-linejoin="round"/></symbol>
</svg>
