<svg xmlns="http://www.w3.org/2000/svg" width="1400" height="1000" viewBox="0 0 1400 1000" fill="none">
  <defs>
    <pattern id="minor" width="56" height="56" patternUnits="userSpaceOnUse">
      <path d="M56 0H0V56" stroke="#F3EEE3" stroke-opacity="0.045"/>
    </pattern>
    <pattern id="major" width="280" height="280" patternUnits="userSpaceOnUse">
      <rect width="280" height="280" fill="url(#minor)"/>
      <path d="M280 0H0V280" stroke="#D7BB86" stroke-opacity="0.07"/>
    </pattern>
    <radialGradient id="halo" cx="0" cy="0" r="1" gradientUnits="userSpaceOnUse" gradientTransform="translate(1040 260) rotate(132) scale(600 470)">
      <stop stop-color="#D7BB86" stop-opacity="0.14"/>
      <stop offset="1" stop-color="#D7BB86" stop-opacity="0"/>
    </radialGradient>
  </defs>
  <rect width="1400" height="1000" fill="url(#major)"/>
  <rect width="1400" height="1000" fill="url(#halo)"/>
  <g stroke="#D7BB86" stroke-opacity="0.14" stroke-width="1.2">
    <circle cx="1040" cy="260" r="248"/><circle cx="1040" cy="260" r="170"/><circle cx="1040" cy="260" r="92"/>
    <path d="M1040 12V508M792 260H1288"/>
    <path d="M180 760C330 610 470 590 620 468C782 336 870 194 1130 162"/>
    <path d="M270 880C480 690 710 680 840 522C948 391 1012 290 1260 252"/>
  </g>
  <g fill="#D7BB86"><circle cx="180" cy="760" r="5" fill-opacity=".45"/><circle cx="620" cy="468" r="5" fill-opacity=".62"/><circle cx="1040" cy="260" r="7" fill-opacity=".72"/></g>
</svg>
